<svg version="1.1" viewBox="0.0 0.0 960.0 720.0" fill="none" stroke="none" stroke-linecap="square" stroke-miterlimit="10" xmlns:xlink="http://www.w3.org/1999/xlink" xmlns="http://www.w3.org/2000/svg"><clipPath id="p.0"><path d="m0 0l960.0 0l0 720.0l-960.0 0l0 -720.0z" clip-rule="nonzero"/></clipPath><g clip-path="url(#p.0)"><path fill="#000000" fill-opacity="0.0" d="m0 0l960.0 0l0 720.0l-960.0 0z" fill-rule="evenodd"/><defs><linearGradient id="p.1" gradientUnits="userSpaceOnUse" gradientTransform="matrix(31.61478465502719 0.0 0.0 31.61478465502719 0.0 0.0)" spreadMethod="pad" x1="38.25776465067015" y1="12.233469036510687" x2="15.902941965792392" y2="-10.121765507358848"><stop offset="0.0" stop-color="#14b8a5" stop-opacity="0.29803923"/><stop offset="0.071428575" stop-color="#1db19f" stop-opacity="0.34509805"/><stop offset="0.14285715" stop-color="#23ac9d" stop-opacity="0.39607844"/><stop offset="0.21428573" stop-color="#2ba898" stop-opacity="0.44705883"/><stop offset="0.2857143" stop-color="#2ea597" stop-opacity="0.49803922"/><stop offset="0.35714287" stop-color="#33a195" stop-opacity="0.54509807"/><stop offset="0.42857146" stop-color="#369f94" stop-opacity="0.59607846"/><stop offset="0.5" stop-color="#399e91" stop-opacity="0.64705884"/><stop offset="0.5714286" stop-color="#3b9c91" stop-opacity="0.69803923"/><stop offset="0.6428572" stop-color="#3c9b8f" stop-opacity="0.7490196"/><stop offset="0.71428573" stop-color="#3f998f" stop-opacity="0.79607844"/><stop offset="0.7857143" stop-color="#40988e" stop-opacity="0.84705883"/><stop offset="0.8571429" stop-color="#42978d" stop-opacity="0.8980392"/><stop offset="0.92857146" stop-color="#42978c" stop-opacity="0.9490196"/><stop offset="0.99999994" stop-color="#44968c"/><stop offset="1.0" stop-color="#737373"/></linearGradient></defs><path fill="url(#p.1)" d="m129.0704 386.75235l0 0c0 -183.94339 167.30707 -333.059 373.69083 -333.059l0 0c206.38373 0 373.6908 149.11559 373.6908 333.059l0 0c0 183.94339 -167.30707 333.059 -373.6908 333.059l0 0c-206.38376 0 -373.69083 -149.1156 -373.69083 -333.059z" fill-rule="evenodd"/><g filter="url(#shadowFilter-p.2)"><use xlink:href="#p.2" transform="matrix(1.0 0.0 0.0 1.0 0.0 2.0)"/></g><defs><filter id="shadowFilter-p.2" filterUnits="userSpaceOnUse"><feGaussianBlur in="SourceAlpha" stdDeviation="2.0" result="blur"/><feComponentTransfer in="blur" color-interpolation-filters="sRGB"><feFuncR type="linear" slope="0" intercept="0.0"/><feFuncG type="linear" slope="0" intercept="0.0"/><feFuncB type="linear" slope="0" intercept="0.0"/><feFuncA type="linear" slope="0.5" intercept="0"/></feComponentTransfer></filter></defs><g id="p.2"><defs><linearGradient id="p.3" gradientUnits="userSpaceOnUse" gradientTransform="matrix(25.280448990001755 0.0 0.0 25.280448990001755 0.0 0.0)" spreadMethod="pad" x1="1.341075152157868" y1="1.600147948139489" x2="1.3409835980078368" y2="26.88059693797546"><stop offset="0.0" stop-color="#14b8a5" stop-opacity="0.4862745"/><stop offset="0.067" stop-color="#1cb1a0" stop-opacity="0.5372549"/><stop offset="0.134" stop-color="#24ac9c" stop-opacity="0.5882353"/><stop offset="0.201" stop-color="#2aa799" stop-opacity="0.6392157"/><stop offset="0.268" stop-color="#30a497" stop-opacity="0.6901961"/><stop offset="0.335" stop-color="#35a194" stop-opacity="0.7411765"/><stop offset="0.402" stop-color="#389e92" stop-opacity="0.7921569"/><stop offset="0.469" stop-color="#3b9b90" stop-opacity="0.84313726"/><stop offset="0.536" stop-color="#3f998f" stop-opacity="0.89411765"/><stop offset="0.60300004" stop-color="#42978d" stop-opacity="0.94509804"/><stop offset="0.67" stop-color="#44968c"/><stop offset="1.0" stop-color="#737373"/></linearGradient></defs><path fill="url(#p.3)" d="m953.5544 226.65295c-8.963196 -9.485489 -33.206482 -32.52083 -50.706177 -48.781235c-17.499756 -16.260406 -35.639465 -33.8761 -54.292114 -48.781235c-18.652649 -14.905136 -33.50763 -27.098999 -57.62384 -40.649582c-24.11621 -13.550583 -62.958008 -32.97475 -87.07349 -40.653923c-24.115417 -7.6791687 -42.680298 -9.034447 -57.6192 -5.4211006c-14.938904 3.6133423 -28.385986 13.325428 -32.014282 27.10117c-3.6282349 13.775734 4.8235474 37.260666 10.244751 55.55327c5.4212036 18.292595 14.812622 34.328575 22.28247 54.20234c7.4698486 19.873749 17.200867 44.488068 22.536621 65.04019c5.3356934 20.552124 7.8980103 41.10858 9.477661 58.27249c1.5795898 17.16394 4.354492 37.259247 0 44.71109c-4.354553 7.4518433 -14.9435425 4.5168457 -26.127136 0c-11.183594 -4.516876 -24.968811 -16.938782 -40.974365 -27.101196c-16.005615 -10.162384 -33.931213 -22.356232 -55.059204 -33.8732c-21.12799 -11.516937 -45.458282 -24.161835 -71.70862 -35.22847c-26.250366 -11.066635 -59.330536 -23.49289 -85.79346 -31.17134c-26.46289 -7.6784363 -48.227814 -11.964355 -72.98401 -14.899338c-24.756226 -2.9349823 -51.223755 -4.7420197 -75.553314 -2.710556c-24.32956 2.031479 -49.082703 8.351028 -70.42401 14.899353c-21.341309 6.5483246 -40.55078 15.5820465 -57.623833 24.39061c-17.073044 8.8085785 -31.369644 15.813736 -44.81443 28.4608c-13.444794 12.647064 -28.897411 29.805908 -35.85432 47.4216c-6.956913 17.615692 -10.455008 37.720398 -5.88715 58.272522c4.567856 20.552094 17.960274 46.71936 33.29428 65.04019c15.334015 18.320831 39.075928 32.237732 58.709778 44.884796c19.63385 12.647095 38.233353 22.217987 59.093307 30.99762c20.859955 8.779602 43.957245 14.22821 66.06641 21.680054c22.109161 7.4518433 40.551575 14.223877 66.58856 23.031006c26.037018 8.807129 59.1149 19.42273 89.633484 29.811707c30.518616 10.388977 63.60034 22.35913 93.47818 32.522278c29.877838 10.163086 59.325897 19.196838 85.78879 28.45642c26.462952 9.259644 78.11102 30.262756 72.98865 27.101196c-5.1223755 -3.161621 -72.77759 -33.648804 -103.7229 -46.07068c-30.945251 -12.421936 -53.992493 -18.07251 -81.94876 -28.460815c-27.956268 -10.388245 -56.551758 -22.80365 -85.78882 -33.868835c-29.23703 -11.065186 -60.182312 -21.906677 -89.633484 -32.522278c-29.451141 -10.615601 -63.377747 -22.46051 -87.07344 -31.171356c-23.69571 -8.710815 -36.74695 -10.931976 -55.100784 -21.093628c-18.35382 -10.161682 -39.749046 -26.454681 -55.02221 -39.876373c-15.27317 -13.421722 -28.293594 -25.297058 -36.616783 -40.65393c-8.323189 -15.356903 -13.749008 -36.582306 -13.322338 -51.487457c0.4266739 -14.905121 7.7732887 -25.748047 15.882366 -37.94336c8.109085 -12.1953125 20.053589 -25.291962 32.772118 -35.228485c12.718521 -9.936523 27.74601 -17.163208 43.53904 -24.390625c15.79303 -7.2274017 34.572754 -14.456985 51.21913 -18.973846c16.646378 -4.516861 32.86685 -6.320999 48.659103 -8.127304c15.792252 -1.8063202 25.607254 -3.6140747 46.094437 -2.710556c20.487213 0.9035187 55.487396 4.293152 76.828705 8.131653c21.341309 3.838501 31.157867 7.8992615 51.219147 14.899338c20.06128 7.0000763 48.23398 17.840836 69.14859 27.101181c20.914642 9.260315 41.18622 19.201172 56.339233 28.460785c15.153015 9.2595825 21.132568 16.483398 34.57892 27.096832c13.446289 10.613403 32.01349 26.646484 46.09906 36.58374c14.085571 9.937225 25.82367 21.457794 38.414368 23.039673c12.590637 1.5818787 29.575134 -3.6111755 37.1297 -13.548401c7.5545654 -9.937225 8.624329 -29.362854 8.197632 -46.075012c-0.42663574 -16.712189 -5.763916 -34.09836 -10.75769 -54.197998c-4.9937134 -20.09964 -12.589111 -46.07431 -19.204834 -66.399826c-6.6157227 -20.325516 -13.660461 -38.389343 -20.489502 -55.55327c-6.8291016 -17.163925 -17.369568 -33.879715 -20.484924 -47.430298c-3.1152954 -13.550583 -3.5411987 -26.646515 1.7929688 -33.873207c5.3341675 -7.2266846 16.212769 -9.712082 30.212097 -9.486923c13.999329 0.22515106 35.5578 4.0629272 53.783752 10.83786c18.226013 6.774925 39.48108 19.647873 55.572144 29.811714c16.091064 10.163849 26.248047 19.879547 40.974365 31.17134c14.726379 11.291794 34.364807 25.73938 47.383728 36.579407c13.01886 10.840042 20.699768 19.87883 30.729614 28.460785c10.029907 8.58197 19.846436 17.610626 29.449646 23.031006c9.60321 5.4203796 23.986816 9.264664 28.169556 9.491272c4.1828003 0.22660828 5.890259 1.3538208 -3.072937 -8.131653z" fill-rule="evenodd"/></g><defs><linearGradient id="p.4" gradientUnits="userSpaceOnUse" gradientTransform="matrix(33.31355864464674 0.0 0.0 33.31355864464674 0.0 0.0)" spreadMethod="pad" x1="36.306321850925656" y1="10.806689018513321" x2="12.750296523860193" y2="-12.749772098576564"><stop offset="0.0" stop-color="#14b8a5" stop-opacity="0.4862745"/><stop offset="0.067" stop-color="#1cb1a0" stop-opacity="0.5372549"/><stop offset="0.134" stop-color="#24ac9c" stop-opacity="0.5882353"/><stop offset="0.201" stop-color="#2aa799" stop-opacity="0.6392157"/><stop offset="0.268" stop-color="#30a497" stop-opacity="0.6901961"/><stop offset="0.335" stop-color="#35a194" stop-opacity="0.7411765"/><stop offset="0.402" stop-color="#389e92" stop-opacity="0.7921569"/><stop offset="0.469" stop-color="#3b9b90" stop-opacity="0.84313726"/><stop offset="0.536" stop-color="#3f998f" stop-opacity="0.89411765"/><stop offset="0.60300004" stop-color="#42978d" stop-opacity="0.94509804"/><stop offset="0.67" stop-color="#44968c"/><stop offset="1.0" stop-color="#737373"/></linearGradient></defs><path fill="url(#p.4)" d="m140.72908 493.906c8.583511 5.034485 36.362625 11.925995 51.940018 13.23999c15.577377 1.3140259 27.536514 -2.2877502 41.524277 -5.3559265c13.987762 -3.0682068 27.304703 -5.937317 42.402267 -13.053223c15.097565 -7.1159363 33.607758 -20.940186 48.183136 -29.642303c14.575409 -8.702148 22.565887 -17.177704 39.269257 -22.570557c16.703339 -5.3928833 42.84201 -9.24295 60.95096 -9.786652c18.108917 -0.5437012 33.569214 2.1733704 47.702545 6.524414c14.133331 4.351074 23.847412 9.520233 37.09735 19.582c13.249939 10.061768 30.47705 24.743927 42.402283 40.788605c11.925232 16.044647 18.990784 34.539215 29.149231 55.4794c10.158508 20.940186 21.201172 50.038086 31.801697 70.16156c10.600586 20.123535 19.434387 36.166748 31.801758 50.57959c12.36731 14.412842 26.943481 27.739014 42.40222 35.89746c15.458801 8.158447 35.775024 11.421387 50.350403 13.053223c14.575378 1.6317749 22.085327 2.4484253 37.10199 -3.262268c15.016724 -5.7106934 40.551575 -15.183105 52.99823 -31.001892c12.446655 -15.818787 21.601624 -40.20581 21.681702 -63.910828c0.08013916 -23.705017 -4.4176636 -50.580994 -21.20111 -78.319275c-16.783447 -27.738281 -47.69873 -60.91574 -79.49963 -88.11029c-31.800964 -27.19455 -77.297 -55.205048 -111.30597 -75.05707c-34.009033 -19.85205 -63.155945 -31.001953 -92.74805 -44.055145c-29.592102 -13.053223 -51.67816 -21.483154 -84.804535 -34.26416c-33.126404 -12.781006 -75.08661 -26.920898 -113.9538 -42.421844c-38.867218 -15.500977 -79.05759 -32.36374 -119.249466 -50.58394c-40.191895 -18.2202 -89.21759 -39.70117 -121.90191 -58.73729c-32.68432 -19.036133 -58.7452 -37.530716 -74.20398 -55.47943c-15.4587755 -17.948715 -21.198826 -36.712616 -18.548683 -52.21286c2.6501427 -15.500238 34.353264 -37.299034 34.449535 -40.78858c0.096271515 -3.4895449 -26.195663 8.928022 -33.87191 19.851313c-7.676247 10.92329 -14.482976 31.003378 -12.185571 45.68843c2.2974057 14.685043 11.748886 27.736809 25.970005 42.42186c14.221119 14.685051 33.563072 30.459671 59.356712 45.68843c25.793633 15.2287445 68.90446 32.903076 95.40511 45.684082c26.50064 12.780991 36.214752 19.036118 63.598785 31.001923c27.384033 11.965805 66.25433 27.467499 100.70538 40.79294c34.45108 13.325409 71.1087 25.01828 106.00107 39.159637c34.892395 14.141357 69.786285 29.371552 103.35324 45.688416c33.566895 16.316895 68.898315 34.264893 98.04834 52.21286c29.149963 17.947998 55.20935 36.9834 76.85181 55.475098c21.642395 18.491669 37.10199 35.623016 53.002808 55.475067c15.900879 19.85205 35.777283 42.69696 42.402283 63.637146c6.624939 20.940186 4.855896 44.055847 -2.6524658 62.003845c-7.508362 17.947998 -23.485413 37.299744 -42.397644 45.684082c-18.912231 8.384338 -48.991028 13.595459 -71.07556 4.621826c-22.084534 -8.973633 -45.531433 -37.52417 -61.43152 -58.463623c-15.900085 -20.939453 -21.682495 -41.83618 -33.968994 -67.173035c-12.286438 -25.336853 -25.174377 -62.004547 -39.749817 -84.84805c-14.575378 -22.843475 -30.035706 -39.70334 -47.702515 -52.21286c-17.66687 -12.5095215 -37.460144 -18.810974 -58.298523 -22.844208c-20.838379 -4.033264 -45.531464 -3.8030396 -66.73181 -1.3552856c-21.200378 2.447754 -43.036133 8.751373 -60.470398 16.041779c-17.434235 7.2904053 -29.810028 19.42923 -44.13513 27.700623c-14.325104 8.271362 -25.089691 15.652985 -41.8154 21.927673c-16.725708 6.274658 -39.61197 15.306915 -58.538803 15.720306c-18.926834 0.4133911 -45.778687 -13.861176 -55.022217 -13.23999c-9.24353 0.6211548 -9.022491 11.932495 -0.43899536 16.96701z" fill-rule="evenodd"/></g></svg>